<svg width="203" height="63" viewBox="0 0 203 63" fill="none" xmlns="http://www.w3.org/2000/svg">
<path d="M18.02 49.6083C18.7268 50.6277 19.3737 51.6954 20.1487 52.66C23.4715 56.8061 27.8388 59.1826 33.0276 60.1189C36.2057 60.6927 39.3655 60.6494 42.4771 59.7115C43.6646 59.3539 44.7938 58.855 45.6802 57.9503C46.3455 57.2717 46.6631 56.4868 46.2889 55.5322C46.0644 54.9601 45.6453 54.6407 45.0549 54.5376C43.9639 54.3464 42.9012 54.5875 41.8402 54.7854C39.3739 55.2461 36.9075 55.6835 34.388 55.7217C30.0839 55.7866 26.0959 54.6707 22.4255 52.4588C21.0667 51.6389 19.8111 50.6527 18.5073 49.7413C18.3892 49.6582 18.2761 49.5684 18.1613 49.4802C18.1131 49.5235 18.0649 49.565 18.0183 49.6083H18.02Z" fill="url(#paint0_linear_207_35)"/>
<path d="M43.0027 46.1292C44.4579 45.434 45.7817 44.5859 46.9575 43.5232C51.6407 39.2923 53.8493 33.9488 54.0522 27.7106C54.1336 25.2044 53.816 22.7613 52.7699 20.4546C52.3824 19.5998 51.8852 18.8165 51.1002 18.2561C49.7764 17.3114 48.1915 17.9933 48.0767 19.6081C48.0268 20.3016 48.1383 21.0151 48.2397 21.7103C48.5524 23.8639 49.008 26.0027 49.2076 28.1647C49.6783 33.272 48.4725 38.0117 45.7285 42.3407C44.9501 43.5681 44.0355 44.7073 43.1823 45.8864C43.1241 45.9679 43.0626 46.0477 43.0044 46.1275L43.0027 46.1292Z" fill="url(#paint1_linear_207_35)"/>
<path d="M42.9692 11.5172C42.8977 11.3775 42.8345 11.2329 42.7547 11.0982C40.0539 6.46815 36.129 3.35986 31.0317 1.74169C27.8851 0.743848 24.6604 0.384622 21.3775 0.830326C19.5398 1.07979 17.7238 1.48225 16.1804 2.5882C15.6732 2.95241 15.1826 3.44468 14.8915 3.98851C14.1947 5.29069 15.0063 6.66107 16.4748 6.61949C17.7121 6.58456 18.9494 6.37003 20.1735 6.15549C22.7213 5.70646 25.2691 5.30732 27.8702 5.4121C31.2545 5.54847 34.441 6.41493 37.4478 7.97822C39.2556 8.91786 40.9286 10.0504 42.5169 11.316C42.6316 11.4075 42.7514 11.494 42.8678 11.5838C42.901 11.5605 42.9343 11.5389 42.9676 11.5156L42.9692 11.5172Z" fill="url(#paint2_linear_207_35)"/>
<path d="M18.0166 14.8567C17.0886 15.482 16.1223 16.0574 15.2392 16.741C10.5228 20.3781 8.01484 25.2625 7.25315 31.1016C6.9089 33.7476 6.99371 36.3752 7.72214 38.9613C8.02981 40.0523 8.44558 41.0967 9.13409 42.0081C9.55651 42.5685 10.0554 43.0392 10.7622 43.2254C11.9081 43.5298 12.9642 42.8645 13.0057 41.6871C13.039 40.7674 12.9342 39.8278 12.7746 38.9181C12.3588 36.5365 11.8599 34.1683 11.805 31.7402C11.6986 27.1601 12.8261 22.901 15.2509 19.0144C16.0591 17.7188 17.0154 16.5164 17.9051 15.2725C17.9733 15.176 18.0465 15.0845 18.1164 14.9897C18.0831 14.9465 18.0498 14.9016 18.0166 14.8584V14.8567Z" fill="url(#paint3_linear_207_35)"/>
<path d="M11.5273 18.103C10.907 18.4905 10.27 18.8513 9.6713 19.2671C4.56399 22.8228 1.75173 27.7737 0.855337 33.8656C0.411296 36.8891 0.497775 39.8892 1.48564 42.8163C1.85817 43.9205 2.3521 44.9649 3.22356 45.7799C3.76904 46.2888 4.39935 46.5499 5.15771 46.4151C5.92439 46.2788 6.4283 45.8796 6.51145 45.1096C6.58962 44.3746 6.56634 43.6095 6.4599 42.8745C6.17385 40.8838 5.7348 38.9114 5.50862 36.9157C4.84838 31.0766 6.26199 25.7398 9.59646 20.9102C10.2334 19.9872 10.9219 19.0975 11.5872 18.1928C11.5672 18.1628 11.5472 18.1329 11.5256 18.103H11.5273Z" fill="url(#paint4_linear_207_35)"/>
<path d="M46.2339 17.9217C45.4789 16.8457 44.7887 15.7148 43.9572 14.702C40.4398 10.4262 35.8314 8.09789 30.4048 7.30627C27.516 6.88551 24.6505 6.99195 21.84 7.83845C20.6375 8.201 19.495 8.70159 18.5953 9.61961C18.0565 10.1684 17.7371 10.8187 17.8719 11.6136C18.0132 12.4518 18.5354 13.0056 19.3836 13.0223C20.2767 13.0389 21.1847 12.9707 22.0678 12.8194C24.3628 12.4269 26.6446 11.9745 28.9795 11.8581C32.8395 11.6652 36.5066 12.3986 39.9908 14.0733C42.0197 15.0479 43.8873 16.2669 45.6302 17.6839C45.7799 17.8053 45.9362 17.92 46.0892 18.0364C46.1391 17.9982 46.189 17.9599 46.2373 17.92L46.2339 17.9217Z" fill="url(#paint5_linear_207_35)"/>
<path d="M49.5119 43.0441C49.9194 42.8097 50.3385 42.5918 50.7343 42.3373C56.2657 38.785 59.3341 33.6644 60.2637 27.225C60.6795 24.3445 60.6113 21.4724 59.7332 18.6601C59.3989 17.5924 58.9615 16.573 58.2265 15.7115C57.6926 15.0862 57.064 14.6222 56.1775 14.6787C55.3011 14.7353 54.6592 15.2276 54.5743 16.0957C54.5045 16.8175 54.5444 17.5675 54.6508 18.2876C54.9319 20.2035 55.346 22.101 55.5788 24.0219C56.3522 30.3715 54.6558 36.0642 50.8657 41.1715C50.4117 41.7819 49.9344 42.3756 49.467 42.976C49.482 42.9976 49.497 43.0209 49.5119 43.0425V43.0441Z" fill="url(#paint6_linear_207_35)"/>
<path d="M14.8816 43.1988C15.6167 44.2516 16.2886 45.3558 17.0985 46.3487C20.6342 50.6777 25.2708 53.0293 30.7556 53.8192C33.6494 54.235 36.5099 54.1169 39.3188 53.2687C40.4763 52.9195 41.5706 52.4239 42.4604 51.5674C43.232 50.824 43.4649 49.901 43.1023 49.0778C42.8795 48.5739 42.5086 48.198 41.9631 48.1631C41.2197 48.1165 40.4597 48.1066 39.7263 48.208C37.689 48.4907 35.67 48.8982 33.6294 49.151C30.3648 49.5551 27.1551 49.2275 24.0202 48.2097C20.8038 47.1653 17.9599 45.4606 15.3489 43.3402C15.2458 43.2554 15.1394 43.1755 15.0329 43.0941C14.983 43.1306 14.9315 43.1656 14.8816 43.2022V43.1988Z" fill="url(#paint7_linear_207_35)"/>
<path d="M32.6914 0.175025C40.2035 2.76277 45.5503 7.66718 48.6603 15.0529C49.0577 14.8417 49.4502 14.6421 49.8377 14.4276C51.3195 13.6027 52.7996 12.7728 54.2814 11.9479C54.8336 11.6403 54.8652 11.5737 54.5974 10.9983C53.7044 9.08412 52.3672 7.50752 50.774 6.15711C46.4301 2.47672 41.3943 0.456085 35.7232 0.0353273C34.7303 -0.037848 33.7275 0.0253492 32.7297 0.0253492C32.718 0.0752415 32.7047 0.125133 32.6931 0.175025H32.6914Z" fill="url(#paint8_linear_207_35)"/>
<path d="M28.4143 60.9289C20.8805 58.3495 15.5204 53.4318 12.4388 46.0294C11.4875 46.5566 10.5977 47.0489 9.70965 47.5445C8.73842 48.085 7.76884 48.6288 6.79761 49.1693C6.23549 49.482 6.2305 49.4969 6.49659 50.064C7.38634 51.9616 8.69351 53.5449 10.2751 54.8886C14.8685 58.7885 20.187 60.864 26.2123 61.1002C26.9308 61.1285 27.6509 61.1035 28.371 61.1035C28.386 61.0453 28.4009 60.9871 28.4143 60.9289Z" fill="url(#paint9_linear_207_35)"/>
<path d="M0.150202 28.276C0.526057 27.363 0.870314 26.435 1.28276 25.5386C3.72249 20.235 7.52261 16.2237 12.743 13.5811C13.3716 13.2634 14.0169 12.9707 14.6705 12.7096C15.0198 12.5699 15.053 12.4252 14.8767 12.1142C13.8589 10.3264 12.8428 8.53861 11.8582 6.73251C11.6321 6.31675 11.4125 6.31675 11.04 6.49636C9.55988 7.20649 8.26767 8.1744 7.11682 9.33356C4.26299 12.2074 2.36209 15.6499 1.14638 19.485C0.286574 22.1991 -0.13252 24.9764 0.0371132 27.8303C0.0454286 27.9766 0.0603962 28.1213 0.0720378 28.2677C0.0969839 28.271 0.123593 28.2743 0.148539 28.2776L0.150202 28.276Z" fill="url(#paint10_linear_207_35)"/>
<path d="M61.0171 32.9377C58.3179 40.3583 53.4085 45.6336 46.0178 48.6271C46.3953 49.3123 46.7512 49.9659 47.1155 50.6145C47.8206 51.8718 48.5457 53.1158 49.2259 54.3864C49.4438 54.7922 49.6483 54.8287 50.0391 54.6408C52.1928 53.5997 53.9274 52.0514 55.4192 50.2154C57.6161 47.5112 59.1445 44.4512 60.1257 41.1183C60.8574 38.6387 61.1967 36.1025 61.0736 33.5131C61.0637 33.3202 61.0354 33.1289 61.0154 32.9377H61.0171Z" fill="url(#paint11_linear_207_35)"/>
<path d="M77.7903 5.7519H96.11V9.77102H89.3491V27.5611H84.5511V9.77102H77.7903V5.7519Z" fill="#0182C4"/>
<path d="M107.837 27.5611L107.525 25.6294C106.985 26.2941 106.404 26.8133 105.78 27.1872C105.157 27.5611 104.316 27.748 103.257 27.748C102.301 27.748 101.439 27.5818 100.671 27.2495C99.9024 26.8964 99.2897 26.3875 98.8327 25.7229C98.3965 25.0582 98.1784 24.2585 98.1784 23.3239C98.1784 22.0361 98.6354 20.9664 99.5493 20.1148C100.484 19.2632 101.928 18.7335 103.88 18.5258L107.525 18.1208V17.0927C107.525 16.7396 107.349 16.3969 106.996 16.0645C106.663 15.7114 106.134 15.5349 105.407 15.5349C104.763 15.5349 104.202 15.701 103.724 16.0334C103.267 16.3657 102.956 16.8434 102.79 17.4665L98.895 16.0645C99.352 14.6729 100.152 13.6136 101.294 12.8866C102.457 12.1389 103.89 11.765 105.594 11.765C107.712 11.765 109.322 12.2947 110.423 13.354C111.524 14.4133 112.074 15.836 112.074 17.6223V27.5611H107.837ZM107.525 20.9249L104.628 21.2676C104.046 21.3506 103.6 21.5376 103.288 21.8284C102.997 22.0984 102.852 22.4411 102.852 22.8565C102.852 23.2512 103.018 23.5835 103.35 23.8535C103.683 24.1235 104.14 24.2585 104.721 24.2585C105.303 24.2585 105.801 24.1443 106.217 23.9158C106.632 23.6666 106.954 23.3239 107.183 22.8877C107.411 22.4307 107.525 21.8699 107.525 21.2053V20.9249Z" fill="#0182C4"/>
<path d="M118.781 22.4515C118.885 22.8461 119.051 23.1681 119.28 23.4173C119.529 23.6458 119.82 23.812 120.152 23.9158C120.484 24.0197 120.827 24.0716 121.18 24.0716C121.824 24.0716 122.322 23.9574 122.676 23.7289C123.029 23.5004 123.205 23.2096 123.205 22.8565C123.205 22.5034 123.07 22.2438 122.8 22.0776C122.551 21.8907 122.219 21.7453 121.803 21.6414C121.388 21.5168 120.952 21.4026 120.495 21.2987C119.975 21.1741 119.394 21.0287 118.75 20.8625C118.106 20.6756 117.493 20.4264 116.912 20.1148C116.33 19.7825 115.852 19.3463 115.479 18.8062C115.105 18.2454 114.918 17.5496 114.918 16.7188C114.918 15.7633 115.177 14.9118 115.697 14.164C116.216 13.4163 116.953 12.8347 117.909 12.4193C118.864 11.9831 119.996 11.765 121.305 11.765C122.925 11.765 124.244 12.0973 125.261 12.762C126.279 13.4267 126.996 14.3613 127.411 15.566L123.454 16.563C123.351 16.293 123.195 16.0853 122.987 15.9399C122.779 15.7737 122.52 15.6595 122.208 15.5972C121.917 15.5141 121.627 15.4726 121.336 15.4726C120.796 15.4726 120.37 15.5764 120.058 15.7841C119.747 15.9918 119.591 16.2515 119.591 16.563C119.591 16.7707 119.653 16.9473 119.778 17.0927C119.923 17.2381 120.11 17.3523 120.339 17.4354C120.588 17.5185 120.868 17.5912 121.18 17.6535C121.512 17.7158 121.865 17.7989 122.239 17.9027C122.862 18.0481 123.496 18.2247 124.14 18.4324C124.805 18.6401 125.417 18.9205 125.978 19.2736C126.56 19.6059 127.017 20.0629 127.349 20.6444C127.702 21.2053 127.889 21.9322 127.91 22.8254C127.91 23.7393 127.65 24.5805 127.131 25.349C126.612 26.0967 125.853 26.6887 124.856 27.1249C123.859 27.5611 122.644 27.7792 121.211 27.7792C119.487 27.7792 118.044 27.4261 116.881 26.7199C115.717 26.0137 114.98 24.9232 114.668 23.4485L118.781 22.4515Z" fill="#0182C4"/>
<path d="M130.658 5.12878H135.238V17.7781H136.079L140.784 11.9831H146.735L140.098 19.6786L146.766 27.5611H140.846L136.048 21.548H135.238V27.5611H130.658V5.12878Z" fill="#0182C4"/>
<path d="M83.5541 56.3204H78.725V34.5112H84.3642L90.8135 50.0581L97.2939 34.5112H102.902V56.3204H98.0728V43.048L92.7451 56.3204H88.8818L83.5541 43.048V56.3204Z" fill="#00689E"/>
<path d="M115.565 56.3204L115.253 54.3887C114.713 55.0534 114.132 55.5727 113.509 55.9465C112.886 56.3204 112.044 56.5073 110.985 56.5073C110.03 56.5073 109.168 56.3412 108.399 56.0088C107.631 55.6557 107.018 55.1469 106.561 54.4822C106.125 53.8175 105.907 53.0179 105.907 52.0832C105.907 50.7954 106.364 49.7257 107.277 48.8741C108.212 48.0225 109.656 47.4929 111.608 47.2852L115.253 46.8802V45.852C115.253 45.4989 115.077 45.1562 114.724 44.8239C114.391 44.4708 113.862 44.2942 113.135 44.2942C112.491 44.2942 111.93 44.4604 111.452 44.7927C110.995 45.125 110.684 45.6028 110.518 46.2259L106.623 44.8239C107.08 43.4322 107.88 42.3729 109.022 41.646C110.185 40.8982 111.619 40.5243 113.322 40.5243C115.44 40.5243 117.05 41.054 118.151 42.1133C119.252 43.1726 119.802 44.5954 119.802 46.3817V56.3204H115.565ZM115.253 49.6842L112.356 50.0269C111.774 50.11 111.328 50.2969 111.016 50.5877C110.725 50.8577 110.58 51.2004 110.58 51.6159C110.58 52.0105 110.746 52.3428 111.078 52.6129C111.411 52.8829 111.868 53.0179 112.449 53.0179C113.031 53.0179 113.529 52.9036 113.945 52.6752C114.36 52.4259 114.682 52.0832 114.911 51.647C115.139 51.1901 115.253 50.6293 115.253 49.9646V49.6842Z" fill="#00689E"/>
<path d="M123.082 40.7424H127.195L127.506 42.4249C128.025 41.864 128.638 41.4071 129.344 41.054C130.051 40.7009 130.819 40.5243 131.65 40.5243C132.875 40.5243 133.904 40.784 134.734 41.3032C135.586 41.8225 136.23 42.5806 136.666 43.5776C137.123 44.5746 137.351 45.7897 137.351 47.2229V56.3204H132.803V47.7837C132.803 46.7451 132.585 45.9559 132.148 45.4158C131.733 44.8758 131.099 44.6058 130.248 44.6058C129.376 44.6058 128.721 44.8862 128.285 45.447C127.849 45.987 127.631 46.7763 127.631 47.8148V56.3204H123.082V40.7424Z" fill="#00689E"/>
<path d="M149.642 56.3204L149.33 54.3887C148.79 55.0534 148.209 55.5727 147.585 55.9465C146.962 56.3204 146.121 56.5073 145.062 56.5073C144.106 56.5073 143.244 56.3412 142.476 56.0088C141.707 55.6557 141.095 55.1469 140.638 54.4822C140.201 53.8175 139.983 53.0179 139.983 52.0832C139.983 50.7954 140.44 49.7257 141.354 48.8741C142.289 48.0225 143.733 47.4929 145.685 47.2852L149.33 46.8802V45.852C149.33 45.4989 149.154 45.1562 148.801 44.8239C148.468 44.4708 147.939 44.2942 147.212 44.2942C146.568 44.2942 146.007 44.4604 145.529 44.7927C145.072 45.125 144.761 45.6028 144.594 46.2259L140.7 44.8239C141.157 43.4322 141.957 42.3729 143.099 41.646C144.262 40.8982 145.695 40.5243 147.399 40.5243C149.517 40.5243 151.127 41.054 152.228 42.1133C153.329 43.1726 153.879 44.5954 153.879 46.3817V56.3204H149.642ZM149.33 49.6842L146.433 50.0269C145.851 50.11 145.405 50.2969 145.093 50.5877C144.802 50.8577 144.657 51.2004 144.657 51.6159C144.657 52.0105 144.823 52.3428 145.155 52.6129C145.488 52.8829 145.945 53.0179 146.526 53.0179C147.108 53.0179 147.606 52.9036 148.022 52.6752C148.437 52.4259 148.759 52.0832 148.987 51.647C149.216 51.1901 149.33 50.6293 149.33 49.9646V49.6842Z" fill="#00689E"/>
<path d="M168.095 40.7424H172.207V54.0772C172.207 55.8427 171.771 57.3486 170.899 58.5948C170.026 59.8618 168.77 60.838 167.129 61.5235C165.488 62.2089 163.484 62.5516 161.116 62.5516L160.461 58.7817C162.808 58.761 164.595 58.3663 165.82 57.5978C167.046 56.8501 167.658 55.7596 167.658 54.3264V54.2641L168.313 53.8902C167.856 54.5964 167.201 55.2196 166.35 55.7596C165.498 56.2789 164.481 56.5385 163.297 56.5385C161.967 56.5385 160.783 56.2166 159.745 55.5727C158.727 54.908 157.927 53.9733 157.346 52.7686C156.764 51.5639 156.473 50.1515 156.473 48.5314C156.473 46.8905 156.764 45.4781 157.346 44.2942C157.927 43.0895 158.727 42.1652 159.745 41.5213C160.783 40.8567 161.967 40.5243 163.297 40.5243C163.961 40.5243 164.584 40.6282 165.166 40.8359C165.748 41.0228 166.267 41.2825 166.724 41.6148C167.181 41.9264 167.544 42.2898 167.814 42.7053L168.095 40.7424ZM161.365 48.5314C161.365 49.6738 161.656 50.5981 162.237 51.3043C162.819 52.0105 163.577 52.3636 164.512 52.3636C165.072 52.3636 165.592 52.2078 166.069 51.8963C166.547 51.5847 166.931 51.1485 167.222 50.5877C167.513 50.0061 167.658 49.3207 167.658 48.5314C167.658 47.7006 167.513 47.0048 167.222 46.444C166.931 45.8832 166.547 45.4574 166.069 45.1666C165.592 44.8758 165.083 44.7304 164.543 44.7304C163.587 44.7304 162.819 45.0835 162.237 45.7897C161.656 46.4751 161.365 47.389 161.365 48.5314Z" fill="#00689E"/>
<path d="M182.886 56.5385C181.287 56.5385 179.895 56.2062 178.711 55.5415C177.527 54.8561 176.603 53.9006 175.938 52.6752C175.294 51.4497 174.972 50.0165 174.972 48.3756C174.972 46.8594 175.294 45.5093 175.938 44.3254C176.582 43.1414 177.486 42.2171 178.649 41.5525C179.812 40.8671 181.131 40.5243 182.605 40.5243C184.163 40.5243 185.513 40.8463 186.656 41.4902C187.798 42.1133 188.691 43.0064 189.335 44.1696C189.979 45.3327 190.301 46.6828 190.301 48.2199C190.301 48.4691 190.291 48.7287 190.27 48.9988C190.249 49.2688 190.218 49.57 190.176 49.9023H179.833C179.936 50.4631 180.134 50.9512 180.425 51.3666C180.715 51.7613 181.079 52.0728 181.515 52.3013C181.972 52.509 182.491 52.6129 183.073 52.6129C183.717 52.6129 184.298 52.4778 184.818 52.2078C185.337 51.9378 185.721 51.5535 185.97 51.0551L190.052 52.1767C189.429 53.5683 188.494 54.6484 187.248 55.4169C186.001 56.1646 184.548 56.5385 182.886 56.5385ZM185.347 46.9425C185.326 46.4232 185.191 45.9662 184.942 45.5716C184.693 45.177 184.371 44.8654 183.976 44.6369C183.582 44.4085 183.146 44.3046 182.668 44.3254C182.19 44.3461 181.754 44.4708 181.359 44.6992C180.985 44.9069 180.663 45.2081 180.393 45.6028C180.123 45.9766 179.957 46.4232 179.895 46.9425H185.347Z" fill="#00689E"/>
<path d="M193.061 40.7424H197.205L197.517 42.7987C197.911 42.2587 198.378 41.8121 198.919 41.459C199.479 41.0851 200.092 40.8359 200.757 40.7113C201.442 40.5867 202.19 40.597 203 40.7424V45.042C202.46 44.855 201.878 44.8031 201.255 44.8862C200.632 44.9485 200.04 45.1562 199.479 45.5093C198.919 45.8416 198.462 46.3401 198.108 47.0048C197.776 47.6694 197.61 48.5107 197.61 49.5284V56.3204H193.061V40.7424Z" fill="#00689E"/>
<defs>
<linearGradient id="paint0_linear_207_35" x1="46.4502" y1="54.9883" x2="18.0216" y2="54.9883" gradientUnits="userSpaceOnUse">
<stop stop-color="#0182C4"/>
<stop offset="0.17" stop-color="#007FBF"/>
<stop offset="0.35" stop-color="#0076B3"/>
<stop offset="0.54" stop-color="#00699E"/>
<stop offset="0.72" stop-color="#005581"/>
<stop offset="0.91" stop-color="#003D5C"/>
<stop offset="1" stop-color="#002F47"/>
</linearGradient>
<linearGradient id="paint1_linear_207_35" x1="48.5341" y1="17.8253" x2="48.5341" y2="46.1292" gradientUnits="userSpaceOnUse">
<stop stop-color="#0182C4"/>
<stop offset="0.17" stop-color="#007FBF"/>
<stop offset="0.35" stop-color="#0076B3"/>
<stop offset="0.54" stop-color="#00699E"/>
<stop offset="0.72" stop-color="#005581"/>
<stop offset="0.91" stop-color="#003D5C"/>
<stop offset="1" stop-color="#002F47"/>
</linearGradient>
<linearGradient id="paint2_linear_207_35" x1="14.6404" y1="6.11391" x2="42.9692" y2="6.11391" gradientUnits="userSpaceOnUse">
<stop stop-color="#0182C4"/>
<stop offset="0.17" stop-color="#007FBF"/>
<stop offset="0.35" stop-color="#0076B3"/>
<stop offset="0.54" stop-color="#00699E"/>
<stop offset="0.72" stop-color="#005581"/>
<stop offset="0.91" stop-color="#003D5C"/>
<stop offset="1" stop-color="#002F47"/>
</linearGradient>
<linearGradient id="paint3_linear_207_35" x1="12.5883" y1="43.2969" x2="12.5883" y2="14.8567" gradientUnits="userSpaceOnUse">
<stop stop-color="#0182C4"/>
<stop offset="0.17" stop-color="#007FBF"/>
<stop offset="0.35" stop-color="#0076B3"/>
<stop offset="0.54" stop-color="#00699E"/>
<stop offset="0.72" stop-color="#005581"/>
<stop offset="0.91" stop-color="#003D5C"/>
<stop offset="1" stop-color="#002F47"/>
</linearGradient>
<linearGradient id="paint4_linear_207_35" x1="6.09402" y1="46.4517" x2="6.09402" y2="18.103" gradientUnits="userSpaceOnUse">
<stop stop-color="#0182C4"/>
<stop offset="0.17" stop-color="#007FBF"/>
<stop offset="0.35" stop-color="#0076B3"/>
<stop offset="0.54" stop-color="#00699E"/>
<stop offset="0.72" stop-color="#005581"/>
<stop offset="0.91" stop-color="#003D5C"/>
<stop offset="1" stop-color="#002F47"/>
</linearGradient>
<linearGradient id="paint5_linear_207_35" x1="17.8386" y1="12.5533" x2="46.2339" y2="12.5533" gradientUnits="userSpaceOnUse">
<stop stop-color="#0182C4"/>
<stop offset="0.17" stop-color="#007FBF"/>
<stop offset="0.35" stop-color="#0076B3"/>
<stop offset="0.54" stop-color="#00699E"/>
<stop offset="0.72" stop-color="#005581"/>
<stop offset="0.91" stop-color="#003D5C"/>
<stop offset="1" stop-color="#002F47"/>
</linearGradient>
<linearGradient id="paint6_linear_207_35" x1="54.9884" y1="14.6754" x2="54.9884" y2="43.0441" gradientUnits="userSpaceOnUse">
<stop stop-color="#0182C4"/>
<stop offset="0.17" stop-color="#007FBF"/>
<stop offset="0.35" stop-color="#0076B3"/>
<stop offset="0.54" stop-color="#00699E"/>
<stop offset="0.72" stop-color="#005581"/>
<stop offset="0.91" stop-color="#003D5C"/>
<stop offset="1" stop-color="#002F47"/>
</linearGradient>
<linearGradient id="paint7_linear_207_35" x1="43.2686" y1="48.5722" x2="14.8816" y2="48.5722" gradientUnits="userSpaceOnUse">
<stop stop-color="#0182C4"/>
<stop offset="0.17" stop-color="#007FBF"/>
<stop offset="0.35" stop-color="#0076B3"/>
<stop offset="0.54" stop-color="#00699E"/>
<stop offset="0.72" stop-color="#005581"/>
<stop offset="0.91" stop-color="#003D5C"/>
<stop offset="1" stop-color="#002F47"/>
</linearGradient>
<linearGradient id="paint8_linear_207_35" x1="35.6816" y1="-2.92827" x2="52.4853" y2="13.8738" gradientUnits="userSpaceOnUse">
<stop stop-color="#0182C4"/>
<stop offset="0.17" stop-color="#007FBF"/>
<stop offset="0.35" stop-color="#0076B3"/>
<stop offset="0.54" stop-color="#00699E"/>
<stop offset="0.72" stop-color="#005581"/>
<stop offset="0.91" stop-color="#003D5C"/>
<stop offset="1" stop-color="#002F47"/>
</linearGradient>
<linearGradient id="paint9_linear_207_35" x1="22.5935" y1="64.4413" x2="12.0313" y2="46.1458" gradientUnits="userSpaceOnUse">
<stop stop-color="#0182C4"/>
<stop offset="0.17" stop-color="#007FBF"/>
<stop offset="0.35" stop-color="#0076B3"/>
<stop offset="0.54" stop-color="#00699E"/>
<stop offset="0.72" stop-color="#005581"/>
<stop offset="0.91" stop-color="#003D5C"/>
<stop offset="1" stop-color="#002F47"/>
</linearGradient>
<linearGradient id="paint10_linear_207_35" x1="-2.87659" y1="25.314" x2="13.8157" y2="8.62177" gradientUnits="userSpaceOnUse">
<stop stop-color="#0182C4"/>
<stop offset="0.17" stop-color="#007FBF"/>
<stop offset="0.35" stop-color="#0076B3"/>
<stop offset="0.54" stop-color="#00699E"/>
<stop offset="0.72" stop-color="#005581"/>
<stop offset="0.91" stop-color="#003D5C"/>
<stop offset="1" stop-color="#002F47"/>
</linearGradient>
<linearGradient id="paint11_linear_207_35" x1="60.5647" y1="32.6766" x2="48.258" y2="53.9922" gradientUnits="userSpaceOnUse">
<stop stop-color="#0182C4"/>
<stop offset="0.17" stop-color="#007FBF"/>
<stop offset="0.35" stop-color="#0076B3"/>
<stop offset="0.54" stop-color="#00699E"/>
<stop offset="0.72" stop-color="#005581"/>
<stop offset="0.91" stop-color="#003D5C"/>
<stop offset="1" stop-color="#002F47"/>
</linearGradient>
</defs>
</svg>
