<svg width="378" height="77" viewBox="0 0 378 77" fill="none" xmlns="http://www.w3.org/2000/svg">
<path d="M133.479 28.7739C133.479 27.3043 133.004 26.2116 132.054 25.4957C131.104 24.7797 129.755 24.4217 128.008 24.4217H118.833V33.1261H127.951C129.698 33.1261 131.047 32.7681 131.997 32.0522C132.985 31.3362 133.479 30.2435 133.479 28.7739ZM110 56.6957V17.1304H129.546C132.32 17.1304 134.656 17.5826 136.556 18.487C138.455 19.3536 139.899 20.5783 140.887 22.1609C141.913 23.7058 142.425 25.4957 142.425 27.5304C142.425 29.3014 142.084 30.7899 141.4 31.9957C140.754 33.1638 139.842 34.1058 138.664 34.8217C137.525 35.5 136.214 35.971 134.732 36.2348V36.687C136.518 36.913 138.056 37.4029 139.348 38.1565C140.64 38.9101 141.628 39.9464 142.311 41.2652C142.995 42.5464 143.337 44.1101 143.337 45.9565C143.337 48.0667 142.824 49.9319 141.799 51.5522C140.773 53.1725 139.291 54.4348 137.354 55.3391C135.416 56.2435 133.042 56.6957 130.23 56.6957H110ZM118.833 49.4044H128.806C130.591 49.4044 131.978 49.0087 132.966 48.2174C133.991 47.4261 134.504 46.2768 134.504 44.7696C134.504 43.187 133.972 42.0188 132.909 41.2652C131.845 40.4739 130.42 40.0783 128.635 40.0783H118.833V49.4044Z" fill="#00689E"/>
<path d="M165.307 56.6957L164.737 53.1913C163.749 54.3971 162.686 55.3391 161.546 56.0174C160.406 56.6957 158.867 57.0348 156.93 57.0348C155.182 57.0348 153.606 56.7333 152.2 56.1304C150.794 55.4899 149.674 54.5667 148.838 53.3609C148.04 52.1551 147.641 50.7043 147.641 49.0087C147.641 46.6725 148.477 44.7319 150.148 43.187C151.858 41.642 154.498 40.6812 158.07 40.3043L164.737 39.5696V37.7043C164.737 37.0638 164.414 36.442 163.768 35.8391C163.16 35.1986 162.192 34.8783 160.862 34.8783C159.684 34.8783 158.658 35.1797 157.785 35.7826C156.949 36.3855 156.379 37.2522 156.075 38.3826L148.952 35.8391C149.788 33.3145 151.25 31.3928 153.34 30.0739C155.467 28.7174 158.089 28.0391 161.204 28.0391C165.079 28.0391 168.023 29 170.037 30.9217C172.05 32.8435 173.057 35.4246 173.057 38.6652V56.6957H165.307ZM164.737 44.6565L159.437 45.2783C158.374 45.429 157.557 45.7681 156.987 46.2957C156.455 46.7855 156.189 47.4072 156.189 48.1609C156.189 48.8768 156.493 49.4797 157.101 49.9696C157.709 50.4594 158.545 50.7043 159.608 50.7043C160.672 50.7043 161.584 50.4971 162.344 50.0826C163.103 49.6304 163.692 49.0087 164.11 48.2174C164.528 47.3884 164.737 46.371 164.737 45.1652V44.6565Z" fill="#00689E"/>
<path d="M191.878 57.0913C189.105 57.129 186.655 56.5449 184.527 55.3391C182.4 54.0957 180.747 52.4 179.569 50.2522C178.391 48.0667 177.803 45.5232 177.803 42.6217C177.803 39.758 178.391 37.2333 179.569 35.0478C180.747 32.8246 182.4 31.1101 184.527 29.9043C186.655 28.6609 189.105 28.0391 191.878 28.0391C195.032 28.0391 197.786 28.8304 200.141 30.413C202.535 31.958 204.206 34.087 205.156 36.8L197.292 38.7217C196.912 37.7043 196.285 36.913 195.411 36.3478C194.538 35.7826 193.531 35.5 192.391 35.5C191.251 35.5 190.245 35.8014 189.371 36.4043C188.497 37.0072 187.813 37.8551 187.319 38.9478C186.863 40.0029 186.636 41.2275 186.636 42.6217C186.636 44.7319 187.167 46.4275 188.231 47.7087C189.295 48.9899 190.682 49.6304 192.391 49.6304C193.493 49.6304 194.481 49.3667 195.354 48.8391C196.228 48.2739 196.912 47.4826 197.406 46.4652L205.213 48.4435C204.263 51.0435 202.573 53.1348 200.141 54.7174C197.748 56.2623 194.994 57.0536 191.878 57.0913Z" fill="#00689E"/>
<path d="M210.277 16H218.654V38.9478H220.192L228.797 28.4348H239.682L227.544 42.3957L239.739 56.6957H228.911L220.135 45.787H218.654V56.6957H210.277V16Z" fill="#00689E"/>
<path d="M243.556 16H251.876V56.6957H243.556V16Z" fill="#00689E"/>
<path d="M271.413 57.0913C268.64 57.0913 266.151 56.5073 263.948 55.3391C261.744 54.171 260.016 52.4942 258.762 50.3087C257.546 48.1232 256.938 45.542 256.938 42.5652C256.938 39.5884 257.565 37.0261 258.819 34.8783C260.111 32.6928 261.858 31.0159 264.062 29.8478C266.303 28.642 268.792 28.0391 271.527 28.0391C274.338 28.0391 276.846 28.642 279.049 29.8478C281.291 31.0159 283.057 32.6928 284.349 34.8783C285.641 37.0261 286.287 39.5696 286.287 42.5087C286.287 45.5232 285.622 48.1232 284.292 50.3087C283 52.4942 281.215 54.171 278.935 55.3391C276.694 56.5073 274.186 57.0913 271.413 57.0913ZM271.413 49.6304C272.401 49.6304 273.351 49.3667 274.262 48.8391C275.174 48.3116 275.896 47.5391 276.428 46.5217C276.998 45.4667 277.283 44.1478 277.283 42.5652C277.283 40.9826 276.998 39.6826 276.428 38.6652C275.896 37.6101 275.193 36.8188 274.319 36.2913C273.446 35.7638 272.515 35.5 271.527 35.5C270.463 35.5 269.513 35.7638 268.678 36.2913C267.842 36.8188 267.158 37.6101 266.626 38.6652C266.132 39.6826 265.885 40.9826 265.885 42.5652C265.885 44.1478 266.132 45.4667 266.626 46.5217C267.12 47.5391 267.785 48.3116 268.621 48.8391C269.457 49.3667 270.387 49.6304 271.413 49.6304Z" fill="#00689E"/>
<path d="M311.307 28.4348H318.829V52.6261C318.829 55.829 318.031 58.5609 316.436 60.8217C314.84 63.1203 312.542 64.8913 309.54 66.1348C306.539 67.3783 302.873 68 298.542 68L297.345 61.1609C301.638 61.1232 304.905 60.4072 307.147 59.013C309.388 57.6565 310.509 55.6783 310.509 53.0783V52.9652L311.706 52.287C310.87 53.5681 309.673 54.6986 308.116 55.6783C306.558 56.6203 304.696 57.0913 302.531 57.0913C300.099 57.0913 297.934 56.5073 296.034 55.3391C294.173 54.1333 292.71 52.4377 291.646 50.2522C290.583 48.0667 290.051 45.5044 290.051 42.5652C290.051 39.5884 290.583 37.0261 291.646 34.8783C292.71 32.6928 294.173 31.0159 296.034 29.8478C297.934 28.642 300.099 28.0391 302.531 28.0391C303.747 28.0391 304.886 28.2275 305.95 28.6043C307.014 28.9435 307.964 29.4145 308.799 30.0174C309.635 30.5826 310.3 31.242 310.794 31.9957L311.307 28.4348ZM298.998 42.5652C298.998 44.6377 299.53 46.3145 300.593 47.5957C301.657 48.8768 303.044 49.5174 304.753 49.5174C305.779 49.5174 306.729 49.2348 307.603 48.6696C308.477 48.1043 309.179 47.313 309.711 46.2957C310.243 45.2406 310.509 43.9971 310.509 42.5652C310.509 41.058 310.243 39.7957 309.711 38.7783C309.179 37.7609 308.477 36.9884 307.603 36.4609C306.729 35.9333 305.798 35.6696 304.81 35.6696C303.063 35.6696 301.657 36.3101 300.593 37.5913C299.53 38.8348 298.998 40.4928 298.998 42.5652Z" fill="#00689E"/>
<path d="M344.801 24.4217H342.806L331.409 56.6957H322.348L336.766 17.1304H351.012L365.373 56.6957H356.312L344.801 24.4217ZM331.979 40.8696H355.229V48.1609H331.979V40.8696Z" fill="#0182C4"/>
<path d="M369.167 17.1304H378V56.6957H369.167V17.1304Z" fill="#0182C4"/>
<path d="M18.0197 57.6083C18.7265 58.6277 19.3735 59.6954 20.1485 60.66C23.4713 64.8061 27.8385 67.1826 33.0273 68.1189C36.2055 68.6927 39.3653 68.6494 42.4769 67.7115C43.6643 67.3539 44.7936 66.855 45.68 65.9503C46.3452 65.2717 46.6629 64.4868 46.2887 63.5322C46.0642 62.9601 45.6451 62.6407 45.0547 62.5376C43.9637 62.3464 42.901 62.5875 41.8399 62.7854C39.3736 63.2461 36.9073 63.6835 34.3877 63.7217C30.0837 63.7866 26.0956 62.6707 22.4252 60.4588C21.0665 59.6389 19.8109 58.6527 18.507 57.7413C18.3889 57.6582 18.2758 57.5684 18.1611 57.4802C18.1129 57.5235 18.0646 57.565 18.0181 57.6083H18.0197Z" fill="url(#paint0_linear_223_36)"/>
<path d="M43.0024 54.1291C44.4576 53.4339 45.7814 52.5857 46.9572 51.523C51.6405 47.2922 53.849 41.9487 54.0519 35.7105C54.1334 33.2043 53.8158 30.7612 52.7697 28.4545C52.3822 27.5997 51.8849 26.8164 51.1 26.2559C49.7761 25.3113 48.1912 25.9932 48.0765 27.608C48.0266 28.3015 48.138 29.015 48.2395 29.7101C48.5521 31.8638 49.0078 34.0025 49.2074 36.1645C49.678 41.2718 48.4723 46.0116 45.7282 50.3406C44.9499 51.5679 44.0352 52.7071 43.1821 53.8863C43.1238 53.9678 43.0623 54.0476 43.0041 54.1274L43.0024 54.1291Z" fill="url(#paint1_linear_223_36)"/>
<path d="M42.9695 19.5173C42.898 19.3776 42.8348 19.2329 42.7549 19.0982C40.0541 14.4682 36.1292 11.3599 31.0319 9.74175C27.8854 8.74391 24.6607 8.38468 21.3778 8.83039C19.5401 9.07985 17.724 9.48231 16.1807 10.5883C15.6734 10.9525 15.1828 11.4447 14.8918 11.9886C14.195 13.2908 15.0065 14.6611 16.475 14.6195C17.7124 14.5846 18.9497 14.3701 20.1737 14.1556C22.7215 13.7065 25.2694 13.3074 27.8704 13.4122C31.2548 13.5485 34.4412 14.415 37.4481 15.9783C39.2558 16.9179 40.9289 18.0505 42.5171 19.3161C42.6319 19.4075 42.7516 19.494 42.868 19.5838C42.9013 19.5605 42.9346 19.5389 42.9678 19.5156L42.9695 19.5173Z" fill="url(#paint2_linear_223_36)"/>
<path d="M18.0166 22.8567C17.0886 23.482 16.1223 24.0574 15.2392 24.741C10.5228 28.3781 8.01484 33.2625 7.25315 39.1016C6.9089 41.7476 6.99371 44.3752 7.72214 46.9613C8.02981 48.0523 8.44558 49.0967 9.13409 50.0081C9.55651 50.5685 10.0554 51.0392 10.7622 51.2254C11.9081 51.5298 12.9642 50.8645 13.0057 49.6871C13.039 48.7674 12.9342 47.8278 12.7746 46.9181C12.3588 44.5365 11.8599 42.1683 11.805 39.7402C11.6986 35.1601 12.8261 30.901 15.2509 27.0144C16.0591 25.7188 17.0154 24.5164 17.9051 23.2725C17.9733 23.176 18.0465 23.0845 18.1164 22.9897C18.0831 22.9465 18.0498 22.9016 18.0166 22.8584V22.8567Z" fill="url(#paint3_linear_223_36)"/>
<path d="M11.5273 26.103C10.907 26.4905 10.27 26.8514 9.6713 27.2672C4.56399 30.8228 1.75173 35.7738 0.855337 41.8657C0.411296 44.8891 0.497775 47.8893 1.48564 50.8163C1.85817 51.9206 2.3521 52.965 3.22356 53.7799C3.76904 54.2888 4.39935 54.5499 5.15771 54.4152C5.92439 54.2788 6.4283 53.8797 6.51145 53.1097C6.58962 52.3746 6.56634 51.6096 6.4599 50.8745C6.17385 48.8838 5.7348 46.9114 5.50862 44.9157C4.84838 39.0767 6.26199 33.7399 9.59646 28.9103C10.2334 27.9873 10.9219 27.0975 11.5872 26.1928C11.5672 26.1629 11.5472 26.133 11.5256 26.103H11.5273Z" fill="url(#paint4_linear_223_36)"/>
<path d="M46.2337 25.9218C45.4787 24.8458 44.7885 23.7149 43.9569 22.7021C40.4395 18.4263 35.8312 16.098 30.4045 15.3064C27.5158 14.8856 24.6503 14.9921 21.8397 15.8386C20.6373 16.2011 19.4948 16.7017 18.595 17.6197C18.0562 18.1685 17.7369 18.8188 17.8716 19.6138C18.013 20.4519 18.5352 21.0057 19.3833 21.0224C20.2764 21.039 21.1845 20.9708 22.0675 20.8195C24.3626 20.427 26.6443 19.9746 28.9793 19.8582C32.8393 19.6653 36.5064 20.3987 39.9905 22.0734C42.0195 23.048 43.8871 24.267 45.63 25.684C45.7797 25.8054 45.936 25.9201 46.089 26.0366C46.1389 25.9983 46.1888 25.9601 46.237 25.9201L46.2337 25.9218Z" fill="url(#paint5_linear_223_36)"/>
<path d="M49.5122 51.0441C49.9196 50.8097 50.3387 50.5918 50.7345 50.3373C56.2659 46.785 59.3343 41.6644 60.264 35.225C60.6797 32.3445 60.6115 29.4724 59.7334 26.6601C59.3992 25.5924 58.9618 24.573 58.2267 23.7115C57.6928 23.0862 57.0642 22.6222 56.1778 22.6787C55.3013 22.7353 54.6594 23.2276 54.5746 24.0957C54.5047 24.8175 54.5446 25.5675 54.6511 26.2876C54.9321 28.2035 55.3463 30.101 55.5791 32.0219C56.3524 38.3715 54.6561 44.0642 50.8659 49.1715C50.4119 49.7819 49.9346 50.3756 49.4673 50.976C49.4823 50.9976 49.4972 51.0209 49.5122 51.0425V51.0441Z" fill="url(#paint6_linear_223_36)"/>
<path d="M14.8818 51.1988C15.6169 52.2515 16.2888 53.3558 17.0987 54.3486C20.6344 58.6776 25.2711 61.0292 30.7559 61.8192C33.6496 62.2349 36.5101 62.1169 39.3191 61.2687C40.4766 60.9194 41.5709 60.4238 42.4606 59.5674C43.2323 58.824 43.4651 57.901 43.1026 57.0777C42.8797 56.5738 42.5088 56.198 41.9633 56.163C41.22 56.1165 40.4599 56.1065 39.7265 56.2079C37.6892 56.4907 35.6703 56.8981 33.6297 57.1509C30.3651 57.555 27.1553 57.2274 24.0204 56.2096C20.804 55.1652 17.9602 53.4606 15.3492 51.3401C15.246 51.2553 15.1396 51.1755 15.0332 51.094C14.9833 51.1306 14.9317 51.1655 14.8818 51.2021V51.1988Z" fill="url(#paint7_linear_223_36)"/>
<path d="M32.6914 8.17502C40.2035 10.7628 45.5503 15.6672 48.6603 23.0529C49.0577 22.8417 49.4502 22.6421 49.8377 22.4276C51.3195 21.6027 52.7996 20.7728 54.2814 19.9479C54.8336 19.6403 54.8652 19.5737 54.5974 18.9983C53.7044 17.0841 52.3672 15.5075 50.774 14.1571C46.4301 10.4767 41.3943 8.45609 35.7232 8.03533C34.7303 7.96215 33.7275 8.02535 32.7297 8.02535C32.718 8.07524 32.7047 8.12513 32.6931 8.17502H32.6914Z" fill="url(#paint8_linear_223_36)"/>
<path d="M28.4143 68.9288C20.8805 66.3494 15.5204 61.4316 12.4388 54.0293C11.4875 54.5565 10.5977 55.0488 9.70965 55.5444C8.73842 56.0849 7.76884 56.6287 6.79761 57.1692C6.23549 57.4818 6.2305 57.4968 6.49659 58.0639C7.38634 59.9615 8.69351 61.5447 10.2751 62.8885C14.8685 66.7884 20.187 68.8639 26.2123 69.1001C26.9308 69.1284 27.6509 69.1034 28.371 69.1034C28.386 69.0452 28.4009 68.987 28.4143 68.9288Z" fill="url(#paint9_linear_223_36)"/>
<path d="M0.150202 36.2759C0.526057 35.3629 0.870314 34.4349 1.28276 33.5385C3.72249 28.235 7.52261 24.2236 12.743 21.581C13.3716 21.2633 14.0169 20.9706 14.6705 20.7095C15.0198 20.5698 15.053 20.4252 14.8767 20.1142C13.8589 18.3264 12.8428 16.5386 11.8582 14.7325C11.6321 14.3167 11.4125 14.3167 11.04 14.4963C9.55988 15.2064 8.26767 16.1743 7.11682 17.3335C4.26299 20.2073 2.36209 23.6499 1.14638 27.4849C0.286574 30.199 -0.13252 32.9764 0.0371132 35.8302C0.0454286 35.9766 0.0603962 36.1213 0.0720378 36.2676C0.0969839 36.2709 0.123593 36.2743 0.148539 36.2776L0.150202 36.2759Z" fill="url(#paint10_linear_223_36)"/>
<path d="M61.0169 40.9377C58.3177 48.3584 53.4083 53.6337 46.0176 56.6272C46.3951 57.3124 46.751 57.966 47.1152 58.6146C47.8204 59.8719 48.5455 61.1158 49.2257 62.3864C49.4435 62.7922 49.6481 62.8288 50.0389 62.6409C52.1926 61.5998 53.9272 60.0515 55.4189 58.2154C57.6159 55.5113 59.1442 52.4512 60.1254 49.1184C60.8572 46.6388 61.1965 44.1026 61.0734 41.5132C61.0634 41.3202 61.0351 41.129 61.0152 40.9377H61.0169Z" fill="url(#paint11_linear_223_36)"/>
<line x1="84" y1="4.37114e-08" x2="84" y2="77" stroke="#00689E" stroke-width="2"/>
<defs>
<linearGradient id="paint0_linear_223_36" x1="46.45" y1="62.9883" x2="18.0214" y2="62.9883" gradientUnits="userSpaceOnUse">
<stop stop-color="#0182C4"/>
<stop offset="0.17" stop-color="#007FBF"/>
<stop offset="0.35" stop-color="#0076B3"/>
<stop offset="0.54" stop-color="#00699E"/>
<stop offset="0.72" stop-color="#005581"/>
<stop offset="0.91" stop-color="#003D5C"/>
<stop offset="1" stop-color="#002F47"/>
</linearGradient>
<linearGradient id="paint1_linear_223_36" x1="48.5338" y1="25.8252" x2="48.5338" y2="54.1291" gradientUnits="userSpaceOnUse">
<stop stop-color="#0182C4"/>
<stop offset="0.17" stop-color="#007FBF"/>
<stop offset="0.35" stop-color="#0076B3"/>
<stop offset="0.54" stop-color="#00699E"/>
<stop offset="0.72" stop-color="#005581"/>
<stop offset="0.91" stop-color="#003D5C"/>
<stop offset="1" stop-color="#002F47"/>
</linearGradient>
<linearGradient id="paint2_linear_223_36" x1="14.6407" y1="14.114" x2="42.9695" y2="14.114" gradientUnits="userSpaceOnUse">
<stop stop-color="#0182C4"/>
<stop offset="0.17" stop-color="#007FBF"/>
<stop offset="0.35" stop-color="#0076B3"/>
<stop offset="0.54" stop-color="#00699E"/>
<stop offset="0.72" stop-color="#005581"/>
<stop offset="0.91" stop-color="#003D5C"/>
<stop offset="1" stop-color="#002F47"/>
</linearGradient>
<linearGradient id="paint3_linear_223_36" x1="12.5883" y1="51.2969" x2="12.5883" y2="22.8567" gradientUnits="userSpaceOnUse">
<stop stop-color="#0182C4"/>
<stop offset="0.17" stop-color="#007FBF"/>
<stop offset="0.35" stop-color="#0076B3"/>
<stop offset="0.54" stop-color="#00699E"/>
<stop offset="0.72" stop-color="#005581"/>
<stop offset="0.91" stop-color="#003D5C"/>
<stop offset="1" stop-color="#002F47"/>
</linearGradient>
<linearGradient id="paint4_linear_223_36" x1="6.09402" y1="54.4518" x2="6.09402" y2="26.103" gradientUnits="userSpaceOnUse">
<stop stop-color="#0182C4"/>
<stop offset="0.17" stop-color="#007FBF"/>
<stop offset="0.35" stop-color="#0076B3"/>
<stop offset="0.54" stop-color="#00699E"/>
<stop offset="0.72" stop-color="#005581"/>
<stop offset="0.91" stop-color="#003D5C"/>
<stop offset="1" stop-color="#002F47"/>
</linearGradient>
<linearGradient id="paint5_linear_223_36" x1="17.8383" y1="20.5534" x2="46.2337" y2="20.5534" gradientUnits="userSpaceOnUse">
<stop stop-color="#0182C4"/>
<stop offset="0.17" stop-color="#007FBF"/>
<stop offset="0.35" stop-color="#0076B3"/>
<stop offset="0.54" stop-color="#00699E"/>
<stop offset="0.72" stop-color="#005581"/>
<stop offset="0.91" stop-color="#003D5C"/>
<stop offset="1" stop-color="#002F47"/>
</linearGradient>
<linearGradient id="paint6_linear_223_36" x1="54.9887" y1="22.6754" x2="54.9887" y2="51.0441" gradientUnits="userSpaceOnUse">
<stop stop-color="#0182C4"/>
<stop offset="0.17" stop-color="#007FBF"/>
<stop offset="0.35" stop-color="#0076B3"/>
<stop offset="0.54" stop-color="#00699E"/>
<stop offset="0.72" stop-color="#005581"/>
<stop offset="0.91" stop-color="#003D5C"/>
<stop offset="1" stop-color="#002F47"/>
</linearGradient>
<linearGradient id="paint7_linear_223_36" x1="43.2689" y1="56.5722" x2="14.8818" y2="56.5722" gradientUnits="userSpaceOnUse">
<stop stop-color="#0182C4"/>
<stop offset="0.17" stop-color="#007FBF"/>
<stop offset="0.35" stop-color="#0076B3"/>
<stop offset="0.54" stop-color="#00699E"/>
<stop offset="0.72" stop-color="#005581"/>
<stop offset="0.91" stop-color="#003D5C"/>
<stop offset="1" stop-color="#002F47"/>
</linearGradient>
<linearGradient id="paint8_linear_223_36" x1="35.6816" y1="5.07173" x2="52.4853" y2="21.8738" gradientUnits="userSpaceOnUse">
<stop stop-color="#0182C4"/>
<stop offset="0.17" stop-color="#007FBF"/>
<stop offset="0.35" stop-color="#0076B3"/>
<stop offset="0.54" stop-color="#00699E"/>
<stop offset="0.72" stop-color="#005581"/>
<stop offset="0.91" stop-color="#003D5C"/>
<stop offset="1" stop-color="#002F47"/>
</linearGradient>
<linearGradient id="paint9_linear_223_36" x1="22.5935" y1="72.4412" x2="12.0313" y2="54.1457" gradientUnits="userSpaceOnUse">
<stop stop-color="#0182C4"/>
<stop offset="0.17" stop-color="#007FBF"/>
<stop offset="0.35" stop-color="#0076B3"/>
<stop offset="0.54" stop-color="#00699E"/>
<stop offset="0.72" stop-color="#005581"/>
<stop offset="0.91" stop-color="#003D5C"/>
<stop offset="1" stop-color="#002F47"/>
</linearGradient>
<linearGradient id="paint10_linear_223_36" x1="-2.87659" y1="33.314" x2="13.8157" y2="16.6217" gradientUnits="userSpaceOnUse">
<stop stop-color="#0182C4"/>
<stop offset="0.17" stop-color="#007FBF"/>
<stop offset="0.35" stop-color="#0076B3"/>
<stop offset="0.54" stop-color="#00699E"/>
<stop offset="0.72" stop-color="#005581"/>
<stop offset="0.91" stop-color="#003D5C"/>
<stop offset="1" stop-color="#002F47"/>
</linearGradient>
<linearGradient id="paint11_linear_223_36" x1="60.5645" y1="40.6766" x2="48.2577" y2="61.9923" gradientUnits="userSpaceOnUse">
<stop stop-color="#0182C4"/>
<stop offset="0.17" stop-color="#007FBF"/>
<stop offset="0.35" stop-color="#0076B3"/>
<stop offset="0.54" stop-color="#00699E"/>
<stop offset="0.72" stop-color="#005581"/>
<stop offset="0.91" stop-color="#003D5C"/>
<stop offset="1" stop-color="#002F47"/>
</linearGradient>
</defs>
</svg>
