<svg width="140" height="48" viewBox="0 0 140 48" fill="none" xmlns="http://www.w3.org/2000/svg">
<path d="M46.0353 41.4002C40.9647 41.4002 36.8367 37.6033 36.8367 32.2273C36.8367 26.8512 40.9647 23.0793 46.0353 23.0793C51.106 23.0793 55.1833 26.8505 55.1833 32.2273C55.1833 37.604 51.106 41.4002 46.0353 41.4002ZM46.0353 37.4256C48.8889 37.4256 50.7492 35.362 50.7492 32.2273C50.7492 29.0925 48.8889 27.0289 46.0353 27.0289C43.1818 27.0289 41.2958 29.0419 41.2958 32.2273C41.2958 35.4127 43.1304 37.4256 46.0353 37.4256Z" fill="#0182C4"/>
<path d="M60.9741 41.4208C60.1446 41.4208 59.4501 41.238 58.8899 40.8731C58.3298 40.5082 57.9069 40.0333 57.6206 39.4489C57.3343 38.8645 57.1912 38.2361 57.1912 37.5644V22.0625H61.6202V36.7928C61.6202 37.0167 61.651 37.1995 61.7134 37.3405C61.7758 37.4814 61.869 37.5871 61.9931 37.6576C62.1172 37.7281 62.275 37.7633 62.4659 37.7633C62.6068 37.7633 62.7206 37.7508 62.808 37.7259C62.8953 37.7009 62.9636 37.6804 63.0135 37.6635V41.0728C62.7316 41.1726 62.4123 41.2548 62.0555 41.3217C61.6987 41.3877 61.3375 41.4215 60.9734 41.4215L60.9741 41.4208Z" fill="#0182C4"/>
<path d="M64.5854 23.1813C64.5854 21.8562 65.6301 20.8115 67.1843 20.8115C68.7384 20.8115 69.7581 21.8562 69.7581 23.1813C69.7581 24.5064 68.7135 25.5254 67.1843 25.5254C65.6551 25.5254 64.5854 24.4807 64.5854 23.1813ZM64.9929 27.0039H69.3499V41.2225H64.9929V27.0039Z" fill="#0182C4"/>
<path d="M91.5949 33.5009C91.5949 31.6407 90.5245 30.6217 88.8683 30.6217C87.2121 30.6217 86.1418 31.6407 86.1418 33.5009V41.2218H81.8097V33.5009C81.8097 31.6407 80.7393 30.6217 79.0831 30.6217C77.4269 30.6217 76.3566 31.6407 76.3566 33.5009V41.2218H71.9995V27.0032H76.3566V28.7871C77.1972 27.6404 78.65 26.8505 80.5103 26.8505C82.651 26.8505 84.3835 27.7931 85.3519 29.5007C86.2945 27.9972 88.0784 26.8505 90.1421 26.8505C93.6585 26.8505 95.9263 29.0925 95.9263 32.9151V41.2218H91.5942V33.5009H91.5949Z" fill="#0182C4"/>
<path d="M106.703 26.7998C110.194 26.7998 112.972 29.6027 112.972 34.0875C112.972 38.5723 110.195 41.4259 106.703 41.4259C104.614 41.4259 103.11 40.4319 102.32 39.2345V48H97.9634V27.0039H102.32V29.0169C103.11 27.7681 104.614 26.7998 106.703 26.7998ZM105.404 30.5967C103.773 30.5967 102.295 31.8455 102.295 34.1132C102.295 36.3809 103.773 37.6297 105.404 37.6297C107.035 37.6297 108.538 36.356 108.538 34.0882C108.538 31.8205 107.06 30.5975 105.404 30.5975V30.5967Z" fill="#0182C4"/>
<path d="M114.754 23.3347H119.111V41.2225H114.754V23.3347Z" fill="#0182C4"/>
<path d="M133.406 38.0621H126.73L125.66 41.2218H121.099L127.571 23.334H132.616L139.088 41.2218H134.476L133.406 38.0621H133.406ZM130.068 28.1506L127.877 34.699H132.285L130.068 28.1506Z" fill="#0182C4"/>
<path d="M7.95459 39.7396C8.2666 40.1896 8.55217 40.6609 8.89428 41.0867C10.3611 42.9169 12.2889 43.966 14.5794 44.3793C15.9823 44.6325 17.3771 44.6135 18.7507 44.1994C19.2749 44.0416 19.7733 43.8213 20.1646 43.422C20.4583 43.1224 20.5985 42.7759 20.4333 42.3545C20.3342 42.102 20.1492 41.961 19.8886 41.9155C19.407 41.8311 18.9379 41.9376 18.4695 42.0249C17.3808 42.2283 16.2921 42.4213 15.1799 42.4382C13.28 42.4669 11.5195 41.9743 9.8993 40.9979C9.29952 40.6359 8.74525 40.2006 8.16969 39.7983C8.11757 39.7616 8.06765 39.722 8.01699 39.683C7.9957 39.7021 7.97441 39.7205 7.95386 39.7396H7.95459Z" fill="url(#paint0_linear_207_11)"/>
<path d="M18.9827 38.2038C19.625 37.8969 20.2094 37.5225 20.7284 37.0534C22.7957 35.1858 23.7707 32.827 23.8602 30.0733C23.8962 28.967 23.756 27.8885 23.2942 26.8703C23.1232 26.4929 22.9037 26.1472 22.5571 25.8998C21.9728 25.4828 21.2732 25.7838 21.2225 26.4966C21.2005 26.8027 21.2497 27.1177 21.2944 27.4246C21.4325 28.3753 21.6336 29.3193 21.7217 30.2737C21.9295 32.5282 21.3972 34.6205 20.1859 36.5314C19.8423 37.0732 19.4386 37.5761 19.062 38.0966C19.0363 38.1326 19.0091 38.1678 18.9834 38.203L18.9827 38.2038Z" fill="url(#paint1_linear_207_11)"/>
<path d="M18.968 22.9251C18.9364 22.8634 18.9085 22.7995 18.8733 22.7401C17.681 20.6962 15.9485 19.3242 13.6984 18.6098C12.3094 18.1694 10.8859 18.0108 9.43675 18.2075C8.62554 18.3177 7.82387 18.4953 7.14259 18.9835C6.91868 19.1443 6.70212 19.3616 6.57364 19.6017C6.26604 20.1765 6.6243 20.7814 7.27254 20.763C7.81873 20.7476 8.36492 20.6529 8.90524 20.5582C10.0299 20.36 11.1546 20.1838 12.3028 20.2301C13.7967 20.2903 15.2033 20.6728 16.5306 21.3628C17.3286 21.7776 18.0672 22.2776 18.7683 22.8362C18.8189 22.8766 18.8718 22.9148 18.9232 22.9544C18.9379 22.9441 18.9525 22.9346 18.9672 22.9243L18.968 22.9251Z" fill="url(#paint2_linear_207_11)"/>
<path d="M7.95311 24.3992C7.54346 24.6752 7.11694 24.9292 6.72711 25.2309C4.64512 26.8365 3.53805 28.9926 3.20182 31.5701C3.04986 32.7381 3.0873 33.8981 3.40885 35.0396C3.54466 35.5212 3.72819 35.9823 4.03212 36.3846C4.21859 36.632 4.43883 36.8397 4.75084 36.922C5.25665 37.0563 5.72282 36.7626 5.74118 36.2429C5.75586 35.8369 5.70961 35.4221 5.63913 35.0206C5.4556 33.9693 5.23536 32.9239 5.21113 31.8521C5.16415 29.8303 5.66189 27.9502 6.73225 26.2345C7.08904 25.6626 7.51116 25.1318 7.90392 24.5827C7.93402 24.5401 7.96632 24.4997 7.99716 24.4579C7.98247 24.4388 7.96779 24.419 7.95311 24.3999V24.3992Z" fill="url(#paint3_linear_207_11)"/>
<path d="M5.08866 25.8322C4.81483 26.0033 4.53366 26.1626 4.26937 26.3461C2.01486 27.9157 0.773445 30.1012 0.37775 32.7903C0.181737 34.1249 0.219912 35.4493 0.655985 36.7414C0.82043 37.2288 1.03847 37.6899 1.42315 38.0496C1.66394 38.2742 1.94218 38.3895 2.27694 38.33C2.61538 38.2698 2.83782 38.0936 2.87452 37.7537C2.90903 37.4293 2.89875 37.0916 2.85177 36.7671C2.7255 35.8883 2.53169 35.0176 2.43184 34.1367C2.14039 31.5592 2.76441 29.2033 4.23633 27.0714C4.51751 26.664 4.82144 26.2712 5.11509 25.8719C5.10628 25.8586 5.09747 25.8454 5.08793 25.8322H5.08866Z" fill="url(#paint4_linear_207_11)"/>
<path d="M20.4092 25.7522C20.0759 25.2772 19.7712 24.778 19.4041 24.331C17.8515 22.4435 15.8172 21.4157 13.4217 21.0663C12.1465 20.8805 10.8816 20.9275 9.64096 21.3012C9.11018 21.4612 8.60583 21.6822 8.20867 22.0875C7.97081 22.3297 7.82986 22.6168 7.88932 22.9677C7.95172 23.3377 8.18224 23.5821 8.55665 23.5895C8.95088 23.5968 9.35171 23.5667 9.74153 23.4999C10.7546 23.3267 11.7619 23.127 12.7926 23.0756C14.4965 22.9904 16.1152 23.3142 17.6532 24.0535C18.5489 24.4837 19.3733 25.0218 20.1427 25.6472C20.2088 25.7008 20.2778 25.7515 20.3453 25.8029C20.3673 25.786 20.3893 25.7691 20.4106 25.7515L20.4092 25.7522Z" fill="url(#paint5_linear_207_11)"/>
<path d="M21.8562 36.842C22.0361 36.7385 22.2211 36.6423 22.3958 36.53C24.8375 34.9619 26.192 32.7015 26.6024 29.8589C26.7859 28.5874 26.7558 27.3196 26.3682 26.0782C26.2206 25.6069 26.0276 25.1568 25.7031 24.7766C25.4674 24.5005 25.1899 24.2957 24.7986 24.3207C24.4118 24.3456 24.1284 24.5629 24.0909 24.9461C24.0601 25.2648 24.0777 25.5958 24.1247 25.9137C24.2488 26.7594 24.4316 27.5971 24.5344 28.445C24.8757 31.2479 24.1269 33.7608 22.4538 36.0153C22.2534 36.2848 22.0427 36.5469 21.8364 36.8119C21.843 36.8214 21.8496 36.8317 21.8562 36.8412V36.842Z" fill="url(#paint6_linear_207_11)"/>
<path d="M6.56934 36.9103C6.89382 37.375 7.19041 37.8624 7.54793 38.3007C9.10869 40.2116 11.1554 41.2497 13.5766 41.5984C14.854 41.7819 16.1167 41.7298 17.3566 41.3554C17.8676 41.2013 18.3506 40.9825 18.7434 40.6044C19.084 40.2762 19.1868 39.8688 19.0268 39.5054C18.9284 39.283 18.7647 39.1171 18.5239 39.1016C18.1957 39.0811 17.8602 39.0767 17.5365 39.1215C16.6372 39.2463 15.746 39.4261 14.8452 39.5377C13.4041 39.7161 11.9872 39.5715 10.6034 39.1222C9.18357 38.6612 7.92821 37.9087 6.77563 36.9727C6.73011 36.9352 6.68313 36.9 6.63614 36.864C6.61412 36.8802 6.59136 36.8956 6.56934 36.9117V36.9103Z" fill="url(#paint7_linear_207_11)"/>
<path d="M14.4312 17.9183C17.7472 19.0606 20.1074 21.2256 21.4803 24.4858C21.6557 24.3926 21.829 24.3045 22 24.2098C22.6541 23.8457 23.3075 23.4794 23.9616 23.1152C24.2054 22.9794 24.2193 22.9501 24.1011 22.696C23.7069 21.8511 23.1166 21.1551 22.4133 20.559C20.4958 18.9344 18.2729 18.0424 15.7695 17.8567C15.3312 17.8244 14.8885 17.8523 14.448 17.8523C14.4429 17.8743 14.437 17.8963 14.4319 17.9183H14.4312Z" fill="url(#paint8_linear_207_11)"/>
<path d="M12.543 44.7368C9.21741 43.5982 6.85131 41.4273 5.49097 38.1597C5.07105 38.3924 4.67829 38.6098 4.28626 38.8285C3.85753 39.0671 3.42953 39.3072 3.0008 39.5458C2.75267 39.6838 2.75046 39.6904 2.86792 39.9407C3.26068 40.7784 3.83771 41.4773 4.53587 42.0704C6.56353 43.792 8.91128 44.7082 11.571 44.8124C11.8882 44.8249 12.2061 44.8139 12.5239 44.8139C12.5305 44.7882 12.5371 44.7625 12.543 44.7368Z" fill="url(#paint9_linear_207_11)"/>
<path d="M0.0663037 30.3229C0.232217 29.9199 0.384182 29.5102 0.566246 29.1145C1.64321 26.7734 3.3207 25.0027 5.62513 23.8361C5.90263 23.6959 6.18748 23.5667 6.47599 23.4515C6.63016 23.3898 6.64484 23.3259 6.56702 23.1886C6.11773 22.3994 5.66918 21.6103 5.23458 20.813C5.13473 20.6295 5.03783 20.6295 4.87338 20.7087C4.22001 21.0222 3.64959 21.4495 3.14157 21.9612C1.88181 23.2297 1.0427 24.7494 0.506047 26.4423C0.126502 27.6404 -0.0584984 28.8664 0.0163828 30.1262C0.0200535 30.1908 0.0266607 30.2546 0.0317996 30.3192C0.0428115 30.3207 0.0545576 30.3222 0.0655695 30.3236L0.0663037 30.3229Z" fill="url(#paint10_linear_207_11)"/>
<path d="M26.9348 32.3806C25.7433 35.6563 23.5762 37.985 20.3137 39.3064C20.4804 39.6089 20.6375 39.8974 20.7982 40.1837C21.1095 40.7387 21.4296 41.2878 21.7299 41.8487C21.826 42.0278 21.9163 42.044 22.0888 41.961C23.0395 41.5014 23.8052 40.818 24.4638 40.0075C25.4335 38.8138 26.1082 37.463 26.5413 35.9918C26.8644 34.8972 27.0141 33.7777 26.9598 32.6346C26.9554 32.5495 26.9429 32.465 26.9341 32.3806H26.9348Z" fill="url(#paint11_linear_207_11)"/>
<path d="M45.942 5.98261C46.4633 5.98261 46.884 5.90725 47.2039 5.75652C47.5357 5.5942 47.7845 5.36812 47.9504 5.07826C48.1163 4.77681 48.1992 4.42319 48.1992 4.01739C48.1992 3.4029 48.0155 2.92754 47.6482 2.5913C47.2809 2.24348 46.7122 2.06957 45.942 2.06957H43.1871V5.98261H45.942ZM50.332 4.01739C50.332 4.45797 50.255 4.89275 50.101 5.32174C49.9469 5.75072 49.6981 6.15073 49.3545 6.52174C49.0109 6.88116 48.5547 7.17101 47.9859 7.3913C47.429 7.6 46.7477 7.70435 45.942 7.70435H43.1871V12.5217H41.072V0.347826H45.942C46.9373 0.347826 47.7549 0.515942 48.3947 0.852174C49.0464 1.17681 49.5322 1.62319 49.8521 2.1913C50.1721 2.74783 50.332 3.35652 50.332 4.01739Z" fill="#A3A3A3"/>
<path d="M56.1588 12.6435C55.3057 12.6435 54.5414 12.4638 53.8661 12.1043C53.1907 11.7333 52.6634 11.2174 52.2842 10.5565C51.905 9.88406 51.7155 9.09565 51.7155 8.1913C51.7155 7.27536 51.911 6.48116 52.302 5.8087C52.693 5.13623 53.2321 4.62029 53.9194 4.26087C54.6066 3.88986 55.3709 3.70435 56.2122 3.70435C57.0653 3.70435 57.8295 3.88986 58.5049 4.26087C59.1922 4.62029 59.7372 5.13623 60.1401 5.8087C60.543 6.46957 60.7444 7.25217 60.7444 8.15652C60.7444 9.07246 60.5371 9.86667 60.1223 10.5391C59.7195 11.2116 59.1685 11.7333 58.4694 12.1043C57.7822 12.4638 57.012 12.6435 56.1588 12.6435ZM56.1411 10.887C56.5558 10.887 56.9468 10.7884 57.3141 10.5913C57.6933 10.3942 58.0014 10.0986 58.2383 9.70435C58.4753 9.29855 58.5938 8.78261 58.5938 8.15652C58.5938 7.55362 58.4812 7.05507 58.2561 6.66087C58.031 6.25507 57.7348 5.95362 57.3674 5.75652C57.0001 5.55942 56.6032 5.46087 56.1766 5.46087C55.7619 5.46087 55.3768 5.55942 55.0213 5.75652C54.6777 5.95362 54.3993 6.25507 54.186 6.66087C53.9727 7.05507 53.8661 7.56522 53.8661 8.1913C53.8661 8.7942 53.9668 9.29855 54.1682 9.70435C54.3815 10.0986 54.6599 10.3942 55.0036 10.5913C55.3472 10.7884 55.7263 10.887 56.1411 10.887Z" fill="#A3A3A3"/>
<path d="M66.5548 12.5217H64.582L61.8448 3.82609H63.8888L65.5595 10.1913L67.2835 3.82609H69.2386L70.8916 10.1739L72.5445 3.82609H74.5529L71.8336 12.5217H69.8252L68.2078 6.64348L66.5548 12.5217Z" fill="#A3A3A3"/>
<path d="M80.1119 12.6435C79.2232 12.6435 78.4412 12.4522 77.7658 12.0696C77.1022 11.687 76.5809 11.1536 76.2017 10.4696C75.8344 9.78551 75.6507 8.9971 75.6507 8.10435C75.6507 7.25797 75.8344 6.50435 76.2017 5.84348C76.569 5.18261 77.0785 4.66087 77.7302 4.27826C78.3819 3.89565 79.1225 3.70435 79.9519 3.70435C80.7932 3.70435 81.5337 3.88406 82.1736 4.24348C82.8134 4.6029 83.3111 5.10725 83.6666 5.75652C84.0339 6.3942 84.2176 7.13623 84.2176 7.98261C84.2176 8.12174 84.2116 8.27246 84.1998 8.43478C84.1879 8.58551 84.1702 8.74783 84.1465 8.92174H77.8191C77.8783 9.32754 78.0087 9.68116 78.2101 9.98261C78.4234 10.2725 78.69 10.4986 79.0099 10.6609C79.3298 10.8232 79.6972 10.9043 80.1119 10.9043C80.6095 10.9043 81.0539 10.8058 81.4449 10.6087C81.8477 10.4116 82.1262 10.1507 82.2802 9.82609L84.0398 10.4C83.6843 11.0957 83.1571 11.6464 82.458 12.0522C81.7589 12.4464 80.9768 12.6435 80.1119 12.6435ZM82.0314 7.32174C82.0196 6.96232 81.9188 6.63768 81.7293 6.34783C81.5397 6.05797 81.2908 5.83188 80.9828 5.66957C80.6747 5.49565 80.3311 5.4087 79.9519 5.4087C79.6201 5.4087 79.3061 5.48986 79.0099 5.65217C78.7137 5.81449 78.4589 6.04058 78.2456 6.33044C78.0442 6.6087 77.9139 6.93913 77.8546 7.32174H82.0314Z" fill="#A3A3A3"/>
<path d="M86.1109 3.82609H87.9238L88.0837 4.90435C88.3207 4.61449 88.5991 4.37681 88.9191 4.1913C89.239 3.9942 89.5826 3.86087 89.9499 3.7913C90.3291 3.72174 90.7083 3.73333 91.0874 3.82609V5.63478C90.7794 5.53044 90.4476 5.50725 90.0921 5.56522C89.7485 5.61159 89.4286 5.73913 89.1324 5.94783C88.8361 6.14493 88.5932 6.42899 88.4036 6.8C88.2141 7.15942 88.1193 7.6058 88.1193 8.13913V12.5217H86.1109V3.82609Z" fill="#A3A3A3"/>
<path d="M96.6531 12.6435C95.7644 12.6435 94.9823 12.4522 94.307 12.0696C93.6434 11.687 93.122 11.1536 92.7429 10.4696C92.3756 9.78551 92.1919 8.9971 92.1919 8.10435C92.1919 7.25797 92.3756 6.50435 92.7429 5.84348C93.1102 5.18261 93.6197 4.66087 94.2714 4.27826C94.9231 3.89565 95.6637 3.70435 96.4931 3.70435C97.3344 3.70435 98.0749 3.88406 98.7148 4.24348C99.3546 4.6029 99.8523 5.10725 100.208 5.75652C100.575 6.3942 100.759 7.13623 100.759 7.98261C100.759 8.12174 100.753 8.27246 100.741 8.43478C100.729 8.58551 100.711 8.74783 100.688 8.92174H94.3603C94.4195 9.32754 94.5499 9.68116 94.7513 9.98261C94.9646 10.2725 95.2312 10.4986 95.5511 10.6609C95.871 10.8232 96.2383 10.9043 96.6531 10.9043C97.1507 10.9043 97.5951 10.8058 97.9861 10.6087C98.3889 10.4116 98.6674 10.1507 98.8214 9.82609L100.581 10.4C100.226 11.0957 99.6983 11.6464 98.9992 12.0522C98.3001 12.4464 97.518 12.6435 96.6531 12.6435ZM98.5726 7.32174C98.5608 6.96232 98.46 6.63768 98.2704 6.34783C98.0809 6.05797 97.832 5.83188 97.524 5.66957C97.2159 5.49565 96.8723 5.4087 96.4931 5.4087C96.1613 5.4087 95.8473 5.48986 95.5511 5.65217C95.2549 5.81449 95.0001 6.04058 94.7868 6.33044C94.5854 6.6087 94.4551 6.93913 94.3958 7.32174H98.5726Z" fill="#A3A3A3"/>
<path d="M109.193 5.11304L108.962 5.16522V0H110.97V12.5217H109.157L109.015 11.4435C108.707 11.7797 108.316 12.0638 107.842 12.2957C107.368 12.5275 106.805 12.6435 106.153 12.6435C105.36 12.6435 104.66 12.458 104.056 12.087C103.464 11.7159 103.002 11.1942 102.67 10.5217C102.338 9.84928 102.172 9.06667 102.172 8.17391C102.172 7.28116 102.338 6.49855 102.67 5.82609C103.002 5.15362 103.464 4.63188 104.056 4.26087C104.66 3.88986 105.36 3.70435 106.153 3.70435C106.853 3.70435 107.463 3.84348 107.984 4.12174C108.505 4.38841 108.908 4.71884 109.193 5.11304ZM104.323 8.17391C104.323 8.97391 104.536 9.62319 104.963 10.1217C105.389 10.6203 105.946 10.8696 106.633 10.8696C107.048 10.8696 107.427 10.7652 107.771 10.5565C108.126 10.3478 108.411 10.0464 108.624 9.65217C108.849 9.24638 108.962 8.75362 108.962 8.17391C108.962 7.5942 108.849 7.10725 108.624 6.71304C108.411 6.30725 108.126 6 107.771 5.7913C107.427 5.58261 107.048 5.47826 106.633 5.47826C105.946 5.47826 105.389 5.72754 104.963 6.22609C104.536 6.72464 104.323 7.37391 104.323 8.17391Z" fill="#A3A3A3"/>
<path d="M120.085 5.11304C120.37 4.71884 120.773 4.38841 121.294 4.12174C121.815 3.84348 122.431 3.70435 123.142 3.70435C123.924 3.70435 124.612 3.88986 125.204 4.26087C125.797 4.63188 126.259 5.15362 126.59 5.82609C126.934 6.49855 127.106 7.28116 127.106 8.17391C127.106 9.06667 126.934 9.84928 126.59 10.5217C126.259 11.1942 125.791 11.7159 125.186 12.087C124.594 12.458 123.913 12.6435 123.142 12.6435C122.467 12.6435 121.892 12.5275 121.418 12.2957C120.944 12.0638 120.559 11.7797 120.263 11.4435L120.121 12.5217H118.308V0H120.316V5.16522L120.085 5.11304ZM124.955 8.17391C124.955 7.37391 124.736 6.72464 124.298 6.22609C123.871 5.72754 123.32 5.47826 122.645 5.47826C122.218 5.47826 121.827 5.58261 121.472 5.7913C121.128 6 120.85 6.30725 120.636 6.71304C120.423 7.10725 120.316 7.5942 120.316 8.17391C120.316 8.75362 120.423 9.24638 120.636 9.65217C120.85 10.0464 121.128 10.3478 121.472 10.5565C121.827 10.7652 122.218 10.8696 122.645 10.8696C123.32 10.8696 123.871 10.6203 124.298 10.1217C124.736 9.62319 124.955 8.97391 124.955 8.17391Z" fill="#A3A3A3"/>
<path d="M134.957 3.82609H137.072L131.847 16H129.856L131.456 12.2783L127.99 3.82609H130.211L132.558 9.98261L134.957 3.82609Z" fill="#A3A3A3"/>
<defs>
<linearGradient id="paint0_linear_207_11" x1="20.5045" y1="42.1145" x2="7.95532" y2="42.1145" gradientUnits="userSpaceOnUse">
<stop stop-color="#0182C4"/>
<stop offset="0.17" stop-color="#007FBF"/>
<stop offset="0.35" stop-color="#0076B3"/>
<stop offset="0.54" stop-color="#00699E"/>
<stop offset="0.72" stop-color="#005581"/>
<stop offset="0.91" stop-color="#003D5C"/>
<stop offset="1" stop-color="#002F47"/>
</linearGradient>
<linearGradient id="paint1_linear_207_11" x1="21.4244" y1="25.7096" x2="21.4244" y2="38.2038" gradientUnits="userSpaceOnUse">
<stop stop-color="#0182C4"/>
<stop offset="0.17" stop-color="#007FBF"/>
<stop offset="0.35" stop-color="#0076B3"/>
<stop offset="0.54" stop-color="#00699E"/>
<stop offset="0.72" stop-color="#005581"/>
<stop offset="0.91" stop-color="#003D5C"/>
<stop offset="1" stop-color="#002F47"/>
</linearGradient>
<linearGradient id="paint2_linear_207_11" x1="6.46279" y1="20.5399" x2="18.968" y2="20.5399" gradientUnits="userSpaceOnUse">
<stop stop-color="#0182C4"/>
<stop offset="0.17" stop-color="#007FBF"/>
<stop offset="0.35" stop-color="#0076B3"/>
<stop offset="0.54" stop-color="#00699E"/>
<stop offset="0.72" stop-color="#005581"/>
<stop offset="0.91" stop-color="#003D5C"/>
<stop offset="1" stop-color="#002F47"/>
</linearGradient>
<linearGradient id="paint3_linear_207_11" x1="5.55691" y1="36.9535" x2="5.55691" y2="24.3992" gradientUnits="userSpaceOnUse">
<stop stop-color="#0182C4"/>
<stop offset="0.17" stop-color="#007FBF"/>
<stop offset="0.35" stop-color="#0076B3"/>
<stop offset="0.54" stop-color="#00699E"/>
<stop offset="0.72" stop-color="#005581"/>
<stop offset="0.91" stop-color="#003D5C"/>
<stop offset="1" stop-color="#002F47"/>
</linearGradient>
<linearGradient id="paint4_linear_207_11" x1="2.69026" y1="38.3462" x2="2.69026" y2="25.8322" gradientUnits="userSpaceOnUse">
<stop stop-color="#0182C4"/>
<stop offset="0.17" stop-color="#007FBF"/>
<stop offset="0.35" stop-color="#0076B3"/>
<stop offset="0.54" stop-color="#00699E"/>
<stop offset="0.72" stop-color="#005581"/>
<stop offset="0.91" stop-color="#003D5C"/>
<stop offset="1" stop-color="#002F47"/>
</linearGradient>
<linearGradient id="paint5_linear_207_11" x1="7.87464" y1="23.3825" x2="20.4092" y2="23.3825" gradientUnits="userSpaceOnUse">
<stop stop-color="#0182C4"/>
<stop offset="0.17" stop-color="#007FBF"/>
<stop offset="0.35" stop-color="#0076B3"/>
<stop offset="0.54" stop-color="#00699E"/>
<stop offset="0.72" stop-color="#005581"/>
<stop offset="0.91" stop-color="#003D5C"/>
<stop offset="1" stop-color="#002F47"/>
</linearGradient>
<linearGradient id="paint6_linear_207_11" x1="24.2737" y1="24.3192" x2="24.2737" y2="36.842" gradientUnits="userSpaceOnUse">
<stop stop-color="#0182C4"/>
<stop offset="0.17" stop-color="#007FBF"/>
<stop offset="0.35" stop-color="#0076B3"/>
<stop offset="0.54" stop-color="#00699E"/>
<stop offset="0.72" stop-color="#005581"/>
<stop offset="0.91" stop-color="#003D5C"/>
<stop offset="1" stop-color="#002F47"/>
</linearGradient>
<linearGradient id="paint7_linear_207_11" x1="19.1002" y1="39.2822" x2="6.56934" y2="39.2822" gradientUnits="userSpaceOnUse">
<stop stop-color="#0182C4"/>
<stop offset="0.17" stop-color="#007FBF"/>
<stop offset="0.35" stop-color="#0076B3"/>
<stop offset="0.54" stop-color="#00699E"/>
<stop offset="0.72" stop-color="#005581"/>
<stop offset="0.91" stop-color="#003D5C"/>
<stop offset="1" stop-color="#002F47"/>
</linearGradient>
<linearGradient id="paint8_linear_207_11" x1="15.7511" y1="16.5484" x2="23.1688" y2="23.9654" gradientUnits="userSpaceOnUse">
<stop stop-color="#0182C4"/>
<stop offset="0.17" stop-color="#007FBF"/>
<stop offset="0.35" stop-color="#0076B3"/>
<stop offset="0.54" stop-color="#00699E"/>
<stop offset="0.72" stop-color="#005581"/>
<stop offset="0.91" stop-color="#003D5C"/>
<stop offset="1" stop-color="#002F47"/>
</linearGradient>
<linearGradient id="paint9_linear_207_11" x1="9.97356" y1="46.2873" x2="5.31111" y2="38.2111" gradientUnits="userSpaceOnUse">
<stop stop-color="#0182C4"/>
<stop offset="0.17" stop-color="#007FBF"/>
<stop offset="0.35" stop-color="#0076B3"/>
<stop offset="0.54" stop-color="#00699E"/>
<stop offset="0.72" stop-color="#005581"/>
<stop offset="0.91" stop-color="#003D5C"/>
<stop offset="1" stop-color="#002F47"/>
</linearGradient>
<linearGradient id="paint10_linear_207_11" x1="-1.26981" y1="29.0154" x2="6.09865" y2="21.647" gradientUnits="userSpaceOnUse">
<stop stop-color="#0182C4"/>
<stop offset="0.17" stop-color="#007FBF"/>
<stop offset="0.35" stop-color="#0076B3"/>
<stop offset="0.54" stop-color="#00699E"/>
<stop offset="0.72" stop-color="#005581"/>
<stop offset="0.91" stop-color="#003D5C"/>
<stop offset="1" stop-color="#002F47"/>
</linearGradient>
<linearGradient id="paint11_linear_207_11" x1="26.7352" y1="32.2654" x2="21.3026" y2="41.6747" gradientUnits="userSpaceOnUse">
<stop stop-color="#0182C4"/>
<stop offset="0.17" stop-color="#007FBF"/>
<stop offset="0.35" stop-color="#0076B3"/>
<stop offset="0.54" stop-color="#00699E"/>
<stop offset="0.72" stop-color="#005581"/>
<stop offset="0.91" stop-color="#003D5C"/>
<stop offset="1" stop-color="#002F47"/>
</linearGradient>
</defs>
</svg>
